<svg xmlns="http://www.w3.org/2000/svg" viewBox="743 -388.666 30 37.666"><defs><style>.a{fill:#2b86c7;}</style></defs><g transform="translate(743 -388.666)"><path class="a" d="M26.528,14.853H10.476v-3.59A4.668,4.668,0,0,1,15,6.474a4.668,4.668,0,0,1,4.524,4.789A1.181,1.181,0,0,0,20.7,12.44h4.12A1.181,1.181,0,0,0,26,11.263,11.148,11.148,0,0,0,15,0,11.148,11.148,0,0,0,4,11.263v3.59h-.53A3.524,3.524,0,0,0,0,18.421V34.1a3.53,3.53,0,0,0,3.48,3.568H26.528A3.524,3.524,0,0,0,30,34.1V18.421A3.524,3.524,0,0,0,26.528,14.853ZM6.356,11.263A8.788,8.788,0,0,1,15,2.354a8.754,8.754,0,0,1,8.57,7.732H21.79A6.983,6.983,0,0,0,15,4.12a7.022,7.022,0,0,0-6.878,7.143v3.59H6.356v-3.59ZM27.646,34.1a1.169,1.169,0,0,1-1.118,1.214H3.48A1.175,1.175,0,0,1,2.354,34.1V18.421A1.17,1.17,0,0,1,3.48,17.207H26.528a1.169,1.169,0,0,1,1.118,1.214V34.1Z"/><path class="a" d="M163.645,280.272a3.472,3.472,0,1,0-5.848,2.538l-.831,3.737a.985.985,0,0,0-.029.257c0,1.023,1,1.788,2.325,1.788h1.817c1.324,0,2.325-.772,2.325-1.788a1.025,1.025,0,0,0-.029-.257l-.831-3.737A3.448,3.448,0,0,0,163.645,280.272Zm-4.2,5.966.728-3.252.728,3.252Zm1.243-4.973a1.178,1.178,0,0,0-.515.522,1.178,1.178,0,0,0-.515-.522,1.118,1.118,0,1,1,1.03,0Z" transform="translate(-145.172 -256.437)"/></g></svg>