<svg xmlns="http://www.w3.org/2000/svg" viewBox="740 -465.683 36.691 36.683"><defs><style>.a{fill:#2b86c7;}</style></defs><g transform="translate(740.007 -941)"><path class="a" d="M34.084,26.366C33,25.284,31.189,24.339,28.33,22.913a31.788,31.788,0,0,1-4.421-2.465c2.436-2.988,3.847-6.369,3.847-9.321A14.63,14.63,0,0,0,26.632,4.4c-1.01-2.013-3.267-4.4-8.3-4.4s-7.294,2.386-8.3,4.392A14.629,14.629,0,0,0,8.907,11.12c0,2.959,1.411,6.334,3.847,9.321a30.659,30.659,0,0,1-4.421,2.465c-2.859,1.426-4.664,2.372-5.753,3.453C.187,28.766.008,32.793-.006,33.581a3.058,3.058,0,0,0,3.059,3.1H33.625a3.058,3.058,0,0,0,3.059-3.1C36.663,32.8,36.484,28.766,34.084,26.366Zm.079,7.8a.77.77,0,0,1-.545.229H3.053a.771.771,0,0,1-.767-.774c.007-.387.115-3.812,1.92-5.624a23.358,23.358,0,0,1,5.159-3.031,24.8,24.8,0,0,0,4.965-2.852l1.548-1.462L14.531,19A13.3,13.3,0,0,1,11.2,11.127a12.631,12.631,0,0,1,.881-5.7c1.053-2.078,3.152-3.138,6.255-3.138s5.2,1.053,6.255,3.131a12.631,12.631,0,0,1,.881,5.7,13.233,13.233,0,0,1-3.332,7.874l-1.347,1.648L22.341,22.1a25.563,25.563,0,0,0,4.965,2.852,23.073,23.073,0,0,1,5.159,3.031c1.476,1.469,1.9,4.227,1.92,5.624A.78.78,0,0,1,34.162,34.161Z" transform="translate(0 475.317)"/></g></svg>