<svg xmlns="http://www.w3.org/2000/svg" viewBox="2984 569.531 40.092 30.069"><defs><style>.a{fill:#2b86c7;}</style></defs><g transform="translate(2114 405)"><g transform="translate(870 164.531)"><path class="a" d="M35.08,0H5.011A5.037,5.037,0,0,0,0,5.011V25.057a5.037,5.037,0,0,0,5.011,5.011H35.08a5.037,5.037,0,0,0,5.011-5.011V5.011A5.037,5.037,0,0,0,35.08,0ZM26.836,13.418l10.67-9.053a7,7,0,0,1,.162.808V25.219a.594.594,0,0,1-.162.485ZM35.08,2.587a.594.594,0,0,1,.485.162L20.046,16,4.526,2.587c.162,0,.323-.162.485-.162H35.08ZM2.587,25.542c0-.162-.162-.323-.162-.485V5.011A1.457,1.457,0,0,1,2.587,4.2l10.67,9.053Zm2.425,2.1c-.323,0-.485,0-.647-.162L15.2,15.034l4.041,3.557a1.172,1.172,0,0,0,1.617,0L24.9,15.034,35.727,27.482c-.162,0-.485.162-.647.162Z"/></g></g></svg>