<svg xmlns="http://www.w3.org/2000/svg" viewBox="2712.5 568.536 34.772 33.362"><defs><style>.a{fill:#2e84cd;stroke:#2b86c7;stroke-width:1px;}</style></defs><path class="a" d="M24.244,10.346a9.529,9.529,0,0,0-7.358,3.483A9.524,9.524,0,0,0,0,19.874c0,4.114,2.453,8.872,7.291,14.143a70.224,70.224,0,0,0,8.926,8.063l.669.5.669-.5a70.224,70.224,0,0,0,8.926-8.063c4.838-5.271,7.291-10.029,7.291-14.143A9.539,9.539,0,0,0,24.244,10.346Zm.6,22.165a67.718,67.718,0,0,1-7.955,7.276,67.728,67.728,0,0,1-7.954-7.276c-4.386-4.779-6.7-9.149-6.7-12.637a7.3,7.3,0,0,1,13.686-3.533l.974,1.757.974-1.757a7.3,7.3,0,0,1,13.686,3.533C31.545,23.363,29.227,27.733,24.84,32.511Z" transform="translate(2713 558.69)"/></svg>