<svg xmlns="http://www.w3.org/2000/svg" viewBox="3228.5 565.555 39.889 38.891"><defs><style>.a,.b{fill:#2b86c7;}.a{stroke:#2b86c7;stroke-width:1px;}</style></defs><g transform="translate(2087.446 405)"><g transform="translate(1141.553 160.555)"><g transform="translate(0.001)"><path class="a" d="M56.011,4.466a.648.648,0,1,0-.917.917,6.219,6.219,0,0,1,0,8.784.648.648,0,1,0,.917.917A7.516,7.516,0,0,0,56.011,4.466Z" transform="translate(-19.317 -1.504)"/><path class="a" d="M51.8,6.742a.648.648,0,1,0-.917.917,4.257,4.257,0,0,1,0,6.013.648.648,0,1,0,.917.917,5.553,5.553,0,0,0,0-7.846Z" transform="translate(-17.836 -2.305)"/><path class="a" d="M3.113,5.382A.648.648,0,1,0,2.2,4.466a7.516,7.516,0,0,0,0,10.617.648.648,0,0,0,.917-.917A6.218,6.218,0,0,1,3.113,5.382Z" transform="translate(-0.001 -1.504)"/><path class="a" d="M7.635,6.466a.647.647,0,0,0-.917,0,5.553,5.553,0,0,0,0,7.846.648.648,0,0,0,.917-.917,4.257,4.257,0,0,1,0-6.013A.649.649,0,0,0,7.635,6.466Z" transform="translate(-1.793 -2.208)"/><path class="b" d="M32.183,0H15.855A2.859,2.859,0,0,0,13,2.855v33.18a2.859,2.859,0,0,0,2.855,2.856H32.182a2.859,2.859,0,0,0,2.856-2.855V2.855A2.859,2.859,0,0,0,32.183,0ZM25.964,1.945h.648a.648.648,0,1,1,0,1.3h-.648a.648.648,0,1,1,0-1.3Zm-4.537,0h2.593a.648.648,0,1,1,0,1.3H21.426a.648.648,0,1,1,0-1.3Zm2.593,35a2.593,2.593,0,1,1,2.593-2.593A2.6,2.6,0,0,1,24.019,36.946Zm9.723-7.13H14.3V5.185H33.742Z" transform="translate(-4.574)"/></g></g></g></svg>