<svg xmlns="http://www.w3.org/2000/svg" viewBox="2492 567 33.184 35.115"><defs><style>.a{fill:#2b86c7;}.b{fill:#acdbff;}</style></defs><g transform="translate(2105 405)"><g transform="translate(-256)"><g transform="translate(643 162)"><path class="a" d="M.032,6.92c14.677,0,26.586,12.617,26.586,28.1v.064h6.566v-.064C33.184,15.707,18.314,0,.032,0H0L.032,6.92Z"/><g transform="translate(0 13.196)"><path class="a" d="M.032,47.92c7.789,0,14.13,6.695,14.13,14.934v.064h6.566v-.064C20.7,50.785,11.426,41,.032,41H0l.032,6.92Z" transform="translate(0 -41)"/></g><g transform="translate(0.032 25.845)"><path class="b" d="M8.79,89.57h0A8.956,8.956,0,0,0,.1,80.3v5.633A3.654,3.654,0,0,0,3.737,89.57Z" transform="translate(-0.1 -80.3)"/></g></g></g></g></svg>