<svg xmlns="http://www.w3.org/2000/svg" viewBox="2124.206 -721.328 30 22.561"><defs><style>.a{fill:#2b86c7;}</style></defs><g transform="translate(2124.206 -782.534)"><g transform="translate(0 61.206)"><g transform="translate(0 0)"><path class="a" d="M21.995,67.377V61.955a.738.738,0,0,0-.4-.663.755.755,0,0,0-.778.049c-5.378,3.727-8.465,4.206-10.553,4.206H4.287A4.3,4.3,0,0,0,0,69.846v1.6a4.3,4.3,0,0,0,4.287,4.3H7.154L10.265,83.3a.749.749,0,0,0,.692.467.8.8,0,0,0,.288-.055.756.756,0,0,0,.41-.983L8.777,75.741h1.476c7.276,0,10.253,3.863,10.388,4.041a.748.748,0,0,0,.6.307.739.739,0,0,0,.233-.037.752.752,0,0,0,.514-.712V73.923a3.362,3.362,0,0,0,.006-6.546ZM1.5,71.442v-1.6a2.793,2.793,0,0,1,2.787-2.794H6.909v7.185H4.287A2.793,2.793,0,0,1,1.5,71.442Zm18.993,6.086a15.7,15.7,0,0,0-10.241-3.292H8.4V67.052h1.85c2.144,0,5.218-.442,10.241-3.685Zm1.5-5.189V68.955a1.854,1.854,0,0,1,0,3.384Z" transform="translate(0 -61.206)"/><path class="a" d="M420.987,202.693h-2.934a.755.755,0,0,0,0,1.511h2.934a.755.755,0,0,0,0-1.511Z" transform="translate(-391.741 -194.004)"/><path class="a" d="M411.837,144.168a.754.754,0,0,0,.7.479.87.87,0,0,0,.276-.049l2.842-1.118a.752.752,0,0,0-.551-1.4L412.26,143.2A.754.754,0,0,0,411.837,144.168Z" transform="translate(-386.566 -137.064)"/><path class="a" d="M415.6,246.2l-2.842-1.118a.752.752,0,0,0-.551,1.4l2.842,1.118a.727.727,0,0,0,.276.049.751.751,0,0,0,.276-1.449Z" transform="translate(-386.515 -233.739)"/></g></g></g></svg>