<svg xmlns="http://www.w3.org/2000/svg" viewBox="3187.035 -122.129 45.716 47.472"><defs><style>.a{fill:none;stroke:#2b86c7;stroke-width:2.5px;}.b{fill:#2b86c7;}</style></defs><g transform="translate(-3062 2501.784)"><g transform="translate(6250.285 -2622.663)"><path class="a" d="M39.718.8H5.1A4.268,4.268,0,0,0,.8,5.074V44.016l8.6-8.548H39.718a4.268,4.268,0,0,0,4.3-4.274V5.074A4.268,4.268,0,0,0,39.718.8Z" transform="translate(-0.8 -0.8)"/><path class="b" d="M10.224,16.273a5.114,5.114,0,0,1-2.865.712A7,7,0,0,1,5.21,16.51a2.442,2.442,0,0,1-1.433-1.187A2.757,2.757,0,0,1,3.3,13.661H5.21a1.434,1.434,0,0,0,.716,1.425,3.465,3.465,0,0,0,1.671.475,2.025,2.025,0,0,0,1.433-.475,1.8,1.8,0,0,0,.478-.95c0-.475-.239-.712-.478-1.187a10.79,10.79,0,0,1-1.91-.475,9.383,9.383,0,0,1-2.149-.95A2.888,2.888,0,0,1,3.539,9.149a2.31,2.31,0,0,1,.955-2.137A5.7,5.7,0,0,1,7.359,6.3a4.518,4.518,0,0,1,1.91.475A6.323,6.323,0,0,1,10.7,7.962a3.418,3.418,0,0,1,.478,1.662H9.508A3.362,3.362,0,0,0,9.03,8.2a2.022,2.022,0,0,0-1.671-.475,2.6,2.6,0,0,0-1.433.237,1.809,1.809,0,0,0-.478,1.187,1.231,1.231,0,0,0,.478.95,8.11,8.11,0,0,0,1.91.712,4.809,4.809,0,0,1,1.91.95c.478.475.955.712,1.194.95s.239.95.239,1.425A2.31,2.31,0,0,1,10.224,16.273Z" transform="translate(2.669 6.76)"/><path class="b" d="M18.283,16.985H16.612V8.674l-3.1,8.311H12.075l-3.1-8.311.239,4.749v3.562H7.3V6.3H9.688l3.1,8.311L15.9,6.3h2.388Z" transform="translate(8.219 6.76)"/><path class="b" d="M19.524,16.548a5.114,5.114,0,0,1-2.865.712,7,7,0,0,1-2.149-.475A2.442,2.442,0,0,1,13.078,15.6a2.252,2.252,0,0,1-.478-1.662h1.91a1.434,1.434,0,0,0,.716,1.425,3.465,3.465,0,0,0,1.671.475,2.025,2.025,0,0,0,1.433-.475,1.8,1.8,0,0,0,.478-.95c0-.475-.239-.712-.478-1.187a5.251,5.251,0,0,0-1.91-.712,5.915,5.915,0,0,1-2.149-.95,2.888,2.888,0,0,1-1.433-2.374,2.31,2.31,0,0,1,.955-2.137A5.024,5.024,0,0,1,16.42,6.1a4.518,4.518,0,0,1,1.91.475,6.323,6.323,0,0,1,1.433,1.187,2.832,2.832,0,0,1,.955,1.9h-1.91a3.362,3.362,0,0,0-.478-1.425A2.569,2.569,0,0,0,16.9,7.762a2.025,2.025,0,0,0-1.433.475,1.809,1.809,0,0,0-.478,1.187,1.231,1.231,0,0,0,.478.95,8.111,8.111,0,0,0,1.91.712,4.809,4.809,0,0,1,1.91.95c.478.475.955.712,1.194,1.187a2.131,2.131,0,0,1,.239,1.187A2.491,2.491,0,0,1,19.524,16.548Z" transform="translate(15.574 6.485)"/></g></g></svg>