<svg xmlns="http://www.w3.org/2000/svg" viewBox="2462.779 -115.201 50.321 31.31"><defs><style>.a{fill:#2b86c7;}</style></defs><g transform="translate(2462.779 -115.201)"><path class="a" d="M45.741,70.181a7.218,7.218,0,0,0,1.225-4.028c0-3.914-2.8-6.989-6.43-6.989s-6.43,3.075-6.43,6.989a7.232,7.232,0,0,0,1.224,4.028A6.786,6.786,0,0,0,32.563,72a9.631,9.631,0,0,0,.145-1.649c0-4.752-3.355-8.387-7.548-8.387s-7.548,3.634-7.548,8.387A9.632,9.632,0,0,0,17.758,72a6.853,6.853,0,0,0-2.768-1.817,7.218,7.218,0,0,0,1.224-4.028c0-3.914-2.8-6.989-6.43-6.989s-6.43,3.075-6.43,6.989a7.232,7.232,0,0,0,1.224,4.028A6.8,6.8,0,0,0,0,76.5v4.752a1.321,1.321,0,0,0,1.4,1.4,1.321,1.321,0,0,0,1.4-1.4V76.5a3.822,3.822,0,0,1,3.914-3.914h.559v-.039a5.59,5.59,0,0,0,5.032,0v.039h.559A3.822,3.822,0,0,1,16.773,76.5c0,.056.022.1.025.148a8.085,8.085,0,0,0-3.38,6.561v5.871a1.321,1.321,0,0,0,1.4,1.4,1.321,1.321,0,0,0,1.4-1.4V83.206a5.5,5.5,0,0,1,5.311-5.311h.352a6.841,6.841,0,0,0,6.564,0h.352a5.5,5.5,0,0,1,5.311,5.311v5.871a1.4,1.4,0,1,0,2.8,0V83.206a8.089,8.089,0,0,0-3.38-6.561,1.362,1.362,0,0,0,.025-.148,3.822,3.822,0,0,1,3.914-3.914h.559v-.039a5.59,5.59,0,0,0,5.032,0v.039h.559A3.822,3.822,0,0,1,47.525,76.5v4.752a1.4,1.4,0,1,0,2.8,0V76.5A6.8,6.8,0,0,0,45.741,70.181ZM6.15,66.153c0-2.236,1.677-4.193,3.634-4.193s3.634,1.957,3.634,4.193-1.677,4.193-3.634,4.193S6.15,68.389,6.15,66.153Zm14.257,4.193c0-3.075,2.236-5.591,4.752-5.591s4.752,2.516,4.752,5.591-1.957,5.591-4.752,5.591S20.407,73.421,20.407,70.346ZM36.9,66.153c0-2.236,1.677-4.193,3.634-4.193s3.634,1.957,3.634,4.193-1.677,4.193-3.634,4.193S36.9,68.389,36.9,66.153Z" transform="translate(0 -59.164)"/></g></svg>